<!-- icon666.com - MILLIONS vector ICONS FREE --><svg version="1.1" id="Capa_1" xmlns="http://www.w3.org/2000/svg" xmlns:xlink="http://www.w3.org/1999/xlink" x="0px" y="0px" viewBox="0 0 59 59" style="enable-background:new 0 0 59 59;" xml:space="preserve"><g><path d="M51,35C36.112,35,24,22.888,24,8c0-1.758,0.174-3.53,0.519-5.269l0.289-1.465l-1.465,0.289C9.817,4.231,0,16.193,0,30 c0,15.99,13.01,29,29,29c13.807,0,25.769-9.817,28.444-23.343l0.289-1.465l-1.465,0.289C54.531,34.826,52.759,35,51,35z"/><path d="M32.9,23.044c1.583,0.245,2.811,1.473,3.058,3.067L36.152,27H37l0.913-0.053l0.131-0.848 c0.245-1.583,1.473-2.811,3.067-3.058C41.626,22.956,42,22.519,42,22l-0.053-0.913L41.1,20.956 c-1.583-0.245-2.811-1.473-3.058-3.067C37.956,17.374,37.519,17,37,17l-0.913,0.053L35.956,17.9 c-0.245,1.583-1.473,2.811-3.067,3.058C32.374,21.044,32,21.481,32,22l0.053,0.913L32.9,23.044z"/><path d="M58.075,5.929c-2.592-0.401-4.603-2.412-5.005-5.008C52.985,0.388,52.535,0,52,0s-0.985,0.388-1.071,0.925 c-0.401,2.592-2.412,4.603-5.008,5.005C45.388,6.015,45,6.465,45,7s0.388,0.985,0.925,1.071c2.592,0.401,4.603,2.412,5.005,5.008 C51.015,13.612,51.465,14,52,14s0.985-0.388,1.071-0.925c0.401-2.592,2.412-4.603,5.008-5.005C58.612,7.985,59,7.535,59,7 S58.612,6.015,58.075,5.929z"/></g></svg>