<?xml version="1.0" ?><svg viewBox="0 0 512 512" xmlns="http://www.w3.org/2000/svg"><title/><g data-name="1" id="_1"><path d="M179,352H103.35a49.27,49.27,0,0,1-49.22-49.21V201.21A49.27,49.27,0,0,1,103.35,152H179a15,15,0,0,1,15,15V337A15,15,0,0,1,179,352ZM103.35,182a19.24,19.24,0,0,0-19.22,19.21V302.79A19.24,19.24,0,0,0,103.35,322H164V182Z"/><path d="M295,416.92H245.62A81.71,81.71,0,0,1,164,335.3V168.7a81.71,81.71,0,0,1,81.62-81.62H295a15,15,0,0,1,15,15V401.92A15,15,0,0,1,295,416.92ZM245.62,117.08A51.68,51.68,0,0,0,194,168.7V335.3a51.68,51.68,0,0,0,51.62,51.62H280V117.08Z"/><path d="M356.35,309.39a15,15,0,0,1-10.6-25.61L430.53,199a15,15,0,0,1,21.21,21.22L367,305A15,15,0,0,1,356.35,309.39Z"/><path d="M441.13,309.39a14.93,14.93,0,0,1-10.6-4.39l-84.78-84.78A15,15,0,0,1,367,199l84.78,84.78a15,15,0,0,1-10.61,25.61Z"/></g></svg>